<svg xmlns="http://www.w3.org/2000/svg" viewBox="0 0 134 80"><g fill="none" fill-rule="evenodd"><polygon fill="#D2EFFF" points="52.354 76 55.739 65 25 65 25 80 7 80 7 52 16 52 16 7 114 7 114 22 134 22 134 80 96 80 96 65 74.261 65 77.646 76 84 76 84 80 46 80 46 76"/><path fill="#1D4359" fill-rule="nonzero" d="M9 73v-2H2v2h7zm2 0h7v-2h-7v2zm-9-4h16V51H2v18zm0-20h16v-2H2v2zm18 11v15H0V45h9V0h100v15h20v60H89V60H69.62l2.76 9H79v6H39v-6h6.62l2.76-9H20zm0-2h69v-4H20v4zm0-6h69V15h18V8H11v37h9v7zm92 21v-6h-6v6h6zm2 0h13v-6h-13v6zm-10 0v-6H91v6h13zm-13-8h36V25H91v40zm0-42h36v-6H91v6zM11 6h96V2H11v4zm30 67h36v-2H41v2zm26.52-13H50.48l-2.77 9h22.58l-2.77-9zM108 19h6v2h-6v-2zm-4 0h2v2h-2v-2z"/></g></svg>