<svg xmlns="http://www.w3.org/2000/svg" viewBox="0 0 137 88"><g fill="none"><path fill="#D2EFFF" d="M58 72v1a15 15 0 0 0 30 0v-1h49A64 64 0 0 0 9 72h49z"/><path fill="#1D4359" d="M12.04 63H51v2a14 14 0 1 0 28 0v-2h48.97A63 63 0 0 0 2.03 63h8a55 55 0 0 1 83.22-45.2l-1 1.73A53 53 0 0 0 12.04 63zM81 65a16 16 0 1 1-32 0H0a65 65 0 0 1 130 0H81zM28.82 39.95a1 1 0 1 1 1.17-1.62 1 1 0 0 1-1.17 1.62zm21.63-16.49a1 1 0 1 1 1.9-.62 1 1 0 0 1-1.9.62zm27.2-.62a1 1 0 1 1 1.9.62 1 1 0 0 1-1.9-.62zM100 38.33a1 1 0 1 1 1.17 1.62 1 1 0 0 1-1.17-1.62zM66.07 61.15l20.06-34.76 1.74 1L67.8 62.15a4 4 0 1 1-1.73-1zM64 66.73a2 2 0 1 0 2-3.46 2 2 0 0 0-2 3.46zm2.11-9.65L65.01 59a6 6 0 1 0 5.19 3l1.1-1.92a8 8 0 1 1-5.19-3z"/></g></svg>