<svg xmlns="http://www.w3.org/2000/svg" viewBox="0 0 128 84"><g fill="none" fill-rule="evenodd"><path fill="#D2EFFF" d="M97 65h20V40a11 11 0 1 0-11-11H87V9H9v46h20v19l19-19h11v10h19l19 19V65z"/><path fill="#1D4359" fill-rule="nonzero" d="M111 17v9h-2v-8h-2v-2h4v1zM50 33H17v-2h33v-6H17v-2h33v-3h28V2H2v44h20v17.17L39.17 46H50V33zm60-.04V58H90v20L70 58H50V48H40L20 68V48H0V0h80v20h17.04A12 12 0 1 1 110 32.96zM97.04 22H52v34h18.83L88 73.17V56h20V32.96A12 12 0 0 1 97.04 22zM109 31a10 10 0 1 0 0-20 10 10 0 0 0 0 20zm-47 1h36v2H62v-2zm0 6h36v2H62v-2zm0 6h18v2H62v-2zM17 15h46v2H17v-2z"/></g></svg>