<svg xmlns="http://www.w3.org/2000/svg" viewBox="0 0 139 85"><g fill="none" fill-rule="evenodd"><path fill="#D2EFFF" d="M73 12V9h52l14 14v62H39v-4h6.62L49 70H9V12h64zm0 58h-6l3.38 11H73V70z"/><path fill="#1D4359" fill-rule="nonzero" d="M130 16h-14V2H66v74h64V16zm-.83-2L118 2.83V14h11.17zM92 18v-2h-2v-2h2v-2h2v2h2v-2h2v2h2v2h-2v2h2v2h-2v2h-2v-2h-2v2h-2v-2h-2v-2h2zm2 0h2v-2h-2v2zm-16 0v-2h-2v-2h2v-2h2v2h2v-2h2v2h2v2h-2v2h2v2h-2v2h-2v-2h-2v2h-2v-2h-2v-2h2zm2 0h2v-2h-2v2zm-16-7H2v44h62V11zm0 46H2v4h62v-4zm0 6h-3.38l2.76 9H64v-9zm0 11H32v2h32v-2zm.5 4H30v-6h6.62l2.76-9H0V3h64V0h54l14 14v64H64.5zM64 5H2v4h62V5zm-5.48 58H41.48l-2.77 9h22.58l-2.77-9zM76 28h44v2H76v-2zm0 8h44v2H76v-2zm0 8h44v2H76v-2zm0 8h22v2H76v-2z"/></g></svg>