<svg xmlns="http://www.w3.org/2000/svg" viewBox="0 0 111 25"><path fill="#1A3650" fill-rule="evenodd" d="M36.26 19.36a6.77 6.77 0 0 1-5.27-2.24c-1.35-1.5-2.03-3.76-2.03-6.78 0-2.66.72-4.74 2.15-6.24a6.83 6.83 0 0 1 5.12-2.26c1.7 0 3.14.51 4.33 1.54a6.43 6.43 0 0 1 2.15 4.17l-3.24.53c-.4-2.16-1.47-3.24-3.21-3.24-1.1 0-2.04.48-2.81 1.44s-1.15 2.31-1.15 4.06c0 2.04.37 3.56 1.11 4.54.75.99 1.7 1.48 2.85 1.48 1.04 0 1.86-.3 2.46-.89.6-.59.9-1.42.9-2.5H36.5v-2.75h6.21v2.23c0 2.13-.6 3.81-1.8 5.05a6.2 6.2 0 0 1-4.65 1.86zm9.1-.36V6.28h3.11V19h-3.12zm0-14.57V1.48h3.11v2.95h-3.12zm5.51 10.37l2.81-.72c.22 1.78 1.18 2.66 2.86 2.66.76 0 1.38-.12 1.83-.37.46-.25.69-.6.69-1.04 0-.37-.18-.65-.53-.83-.35-.18-1.09-.44-2.21-.76l-.7-.19a9.04 9.04 0 0 1-3.24-1.47 2.8 2.8 0 0 1-1.03-2.27c0-1.06.43-1.97 1.29-2.74a5.07 5.07 0 0 1 3.51-1.15c2.85 0 4.63 1.25 5.35 3.74l-2.59.8a3.41 3.41 0 0 0-.95-1.44c-.4-.36-1-.53-1.78-.53-.61 0-1.1.11-1.46.35-.36.23-.54.5-.54.82 0 .36.22.63.64.83.42.2 1.48.54 3.18 1.02 1.49.4 2.5.91 3.04 1.53.53.61.8 1.4.8 2.36 0 1.02-.44 1.94-1.33 2.75-.89.8-2.17 1.21-3.85 1.21-1.76 0-3.12-.44-4.07-1.33a5.41 5.41 0 0 1-1.72-3.23zm14.02-.34V8.92h-1.97V6.28h2.04V3.16h2.95v3.12h3.22v2.64h-3.17v5.26c0 .67.11 1.14.34 1.41.22.27.68.41 1.36.41h1.04v3h-1.32c-1.72 0-2.9-.36-3.53-1.08-.64-.72-.96-1.87-.96-3.46zM74.13 19V2.2h1.99v14.98h7.3V19h-9.3zm16.99.36a5.4 5.4 0 0 1-4.15-1.78c-1.09-1.18-1.63-2.83-1.63-4.94 0-2.08.56-3.72 1.68-4.92a5.4 5.4 0 0 1 4.1-1.8c1.6 0 2.95.6 4.04 1.8 1.1 1.2 1.65 2.84 1.65 4.92 0 2.11-.54 3.76-1.61 4.94a5.26 5.26 0 0 1-4.08 1.78zm0-1.78c1.07 0 1.96-.43 2.68-1.3a5.6 5.6 0 0 0 1.06-3.64c0-1.55-.35-2.76-1.05-3.64a3.3 3.3 0 0 0-2.69-1.3c-1.12 0-2.04.42-2.76 1.28-.72.86-1.08 2.08-1.08 3.66s.36 2.8 1.08 3.66a3.45 3.45 0 0 0 2.76 1.28zm9.05 3.72l1.65-.84c.3.79.69 1.4 1.2 1.86.5.46 1.21.69 2.14.69a3.1 3.1 0 0 0 2.38-.9c.56-.6.84-1.44.84-2.51v-1.7h-.05c-.83.97-2.01 1.46-3.53 1.46-1.68 0-3.03-.6-4.06-1.82-1.02-1.22-1.53-2.85-1.53-4.9 0-2.03.53-3.66 1.6-4.88a5.05 5.05 0 0 1 3.97-1.84c1.53 0 2.72.53 3.57 1.58h.05V6.28h1.92v12.91c0 1.81-.45 3.19-1.36 4.14a4.93 4.93 0 0 1-3.75 1.43c-1.3 0-2.37-.32-3.23-.95a5.05 5.05 0 0 1-1.81-2.5zm8.2-6.48V10.8c0-.78-.3-1.5-.9-2.13-.6-.64-1.39-.96-2.38-.96-1.25 0-2.21.43-2.9 1.3a5.78 5.78 0 0 0-1.01 3.64c0 1.57.33 2.78 1 3.65.68.86 1.64 1.3 2.9 1.3.95 0 1.74-.28 2.36-.83.62-.56.94-1.2.94-1.94zM1.7 5h5.06l.85-5h2.06l-.84 5h4.04l.85-5h2.06l-.84 5H20l-.34 2H14.6l-1.02 6h5.06l-.34 2h-5.06l-.85 5h-2.06l.84-5H7.13l-.85 5H4.22l.84-5H0l.34-2H5.4l1.02-6H1.36l.34-2zm5.77 8h4.04l1.02-6H8.5l-1.02 6z"/></svg>